<svg width="151" height="74" viewBox="0 0 151 74" fill="none" xmlns="http://www.w3.org/2000/svg">
<ellipse cx="35.0626" cy="75.0036" rx="35.0626" ry="75.0036" transform="matrix(0.0138045 -0.999905 0.999822 0.0188566 0 70.5837)" fill="#F14E1B"/>
<path d="M22.3161 31.0909H24.5959V38.6974C24.5959 39.4006 24.4379 40.0114 24.1218 40.5298C23.8093 41.0483 23.3743 41.4478 22.8168 41.7283C22.2592 42.0089 21.6112 42.1491 20.8725 42.1491C20.2156 42.1491 19.619 42.0337 19.0827 41.8029C18.5501 41.5685 18.1275 41.2134 17.815 40.7376C17.5025 40.2582 17.348 39.6562 17.3516 38.9318H19.6474C19.6545 39.2195 19.7131 39.4663 19.8232 39.6722C19.9368 39.8746 20.0913 40.0309 20.2866 40.141C20.4854 40.2475 20.7198 40.3008 20.9897 40.3008C21.2738 40.3008 21.5135 40.2404 21.7088 40.1197C21.9077 39.9954 22.0586 39.8143 22.1616 39.5763C22.2646 39.3384 22.3161 39.0455 22.3161 38.6974V31.0909ZM33.2411 31.0909H35.5476V38.1754C35.5476 38.9709 35.3576 39.6669 34.9776 40.2635C34.6012 40.8601 34.0739 41.3253 33.3956 41.6591C32.7173 41.9893 31.9272 42.1545 31.0252 42.1545C30.1197 42.1545 29.3278 41.9893 28.6495 41.6591C27.9712 41.3253 27.4439 40.8601 27.0675 40.2635C26.6911 39.6669 26.5028 38.9709 26.5028 38.1754V31.0909H28.8093V37.9783C28.8093 38.3938 28.8999 38.7631 29.081 39.0863C29.2656 39.4094 29.5249 39.6634 29.8587 39.848C30.1925 40.0327 30.5813 40.125 31.0252 40.125C31.4727 40.125 31.8615 40.0327 32.1918 39.848C32.5256 39.6634 32.783 39.4094 32.9641 39.0863C33.1488 38.7631 33.2411 38.3938 33.2411 37.9783V31.0909ZM43.3632 34.2283C43.3206 33.7987 43.1377 33.4648 42.8145 33.2269C42.4914 32.989 42.0528 32.87 41.4988 32.87C41.1224 32.87 40.8046 32.9233 40.5454 33.0298C40.2861 33.1328 40.0873 33.2766 39.9488 33.4613C39.8138 33.646 39.7464 33.8555 39.7464 34.0898C39.7393 34.2852 39.7801 34.4556 39.8689 34.6012C39.9612 34.7468 40.0873 34.8729 40.2471 34.9794C40.4069 35.0824 40.5915 35.1729 40.801 35.2511C41.0106 35.3256 41.2343 35.3896 41.4722 35.4428L42.4523 35.6772C42.9282 35.7837 43.365 35.9258 43.7627 36.1033C44.1604 36.2809 44.5049 36.4993 44.7961 36.7585C45.0873 37.0178 45.3128 37.3232 45.4726 37.6747C45.6359 38.0263 45.7194 38.4293 45.7229 38.8839C45.7194 39.5515 45.5489 40.1303 45.2116 40.6204C44.8778 41.1069 44.3948 41.4851 43.7627 41.755C43.1341 42.0213 42.376 42.1545 41.4882 42.1545C40.6075 42.1545 39.8405 42.0195 39.1871 41.7496C38.5372 41.4798 38.0294 41.0803 37.6636 40.5511C37.3014 40.0185 37.1114 39.3597 37.0937 38.5749H39.3256C39.3504 38.9407 39.4552 39.2461 39.6398 39.4911C39.828 39.7326 40.0784 39.9155 40.3909 40.0398C40.7069 40.1605 41.0638 40.2209 41.4616 40.2209C41.8522 40.2209 42.1913 40.1641 42.479 40.0504C42.7702 39.9368 42.9956 39.7788 43.1555 39.5763C43.3153 39.3739 43.3952 39.1413 43.3952 38.8786C43.3952 38.6335 43.3224 38.4276 43.1768 38.2607C43.0347 38.0937 42.8252 37.9517 42.5482 37.8345C42.2748 37.7173 41.9392 37.6108 41.5415 37.5149L40.3536 37.2166C39.4339 36.9929 38.7077 36.6431 38.175 36.1673C37.6423 35.6914 37.3778 35.0504 37.3813 34.2443C37.3778 33.5838 37.5535 33.0067 37.9086 32.5131C38.2673 32.0195 38.7591 31.6342 39.3841 31.3572C40.0091 31.0803 40.7194 30.9418 41.5148 30.9418C42.3245 30.9418 43.0312 31.0803 43.6349 31.3572C44.2421 31.6342 44.7144 32.0195 45.0518 32.5131C45.3891 33.0067 45.5631 33.5785 45.5738 34.2283H43.3632ZM46.8588 32.9925V31.0909H55.8184V32.9925H52.4785V42H50.1987V32.9925H46.8588ZM64.6327 42H60.7655V31.0909H64.6647C65.762 31.0909 66.7066 31.3093 67.4985 31.7461C68.2904 32.1793 68.8994 32.8026 69.3256 33.6158C69.7552 34.429 69.9701 35.402 69.9701 36.5348C69.9701 37.6712 69.7552 38.6477 69.3256 39.4645C68.8994 40.2812 68.2868 40.908 67.4878 41.3448C66.6924 41.7816 65.7407 42 64.6327 42ZM63.072 40.0238H64.5368C65.2187 40.0238 65.7922 39.9031 66.2574 39.6616C66.7261 39.4165 67.0777 39.0384 67.3121 38.527C67.55 38.0121 67.6689 37.348 67.6689 36.5348C67.6689 35.7287 67.55 35.07 67.3121 34.5586C67.0777 34.0472 66.7279 33.6708 66.2627 33.4293C65.7975 33.1879 65.224 33.0671 64.5422 33.0671H63.072V40.0238ZM71.6786 42V31.0909H75.9826C76.8065 31.0909 77.5096 31.2383 78.092 31.533C78.6779 31.8242 79.1236 32.2379 79.429 32.7741C79.7379 33.3068 79.8924 33.9336 79.8924 34.6545C79.8924 35.3789 79.7362 36.0021 79.4237 36.5241C79.1112 37.0426 78.6584 37.4403 78.0653 37.7173C77.4759 37.9943 76.7621 38.1328 75.924 38.1328H73.0423V36.2791H75.5511C75.9915 36.2791 76.3572 36.2187 76.6484 36.098C76.9396 35.9773 77.1563 35.7962 77.2983 35.5547C77.4439 35.3132 77.5167 35.0131 77.5167 34.6545C77.5167 34.2923 77.4439 33.9869 77.2983 33.7383C77.1563 33.4897 76.9379 33.3015 76.6431 33.1737C76.3519 33.0423 75.9844 32.9766 75.5405 32.9766H73.9851V42H71.6786ZM77.57 37.0355L80.2812 42H77.7351L75.0824 37.0355H77.57ZM91.5472 36.5455C91.5472 37.7351 91.3217 38.7472 90.8707 39.5817C90.4233 40.4162 89.8125 41.0536 89.0384 41.494C88.2678 41.9308 87.4013 42.1491 86.4389 42.1491C85.4695 42.1491 84.5994 41.929 83.8288 41.4886C83.0582 41.0483 82.4492 40.4109 82.0018 39.5763C81.5543 38.7418 81.3306 37.7315 81.3306 36.5455C81.3306 35.3558 81.5543 34.3438 82.0018 33.5092C82.4492 32.6747 83.0582 32.0391 83.8288 31.6023C84.5994 31.1619 85.4695 30.9418 86.4389 30.9418C87.4013 30.9418 88.2678 31.1619 89.0384 31.6023C89.8125 32.0391 90.4233 32.6747 90.8707 33.5092C91.3217 34.3438 91.5472 35.3558 91.5472 36.5455ZM89.2088 36.5455C89.2088 35.7749 89.0934 35.125 88.8626 34.5959C88.6353 34.0668 88.3139 33.6655 87.8984 33.392C87.483 33.1186 86.9964 32.9819 86.4389 32.9819C85.8814 32.9819 85.3949 33.1186 84.9794 33.392C84.5639 33.6655 84.2408 34.0668 84.0099 34.5959C83.7827 35.125 83.669 35.7749 83.669 36.5455C83.669 37.3161 83.7827 37.9659 84.0099 38.495C84.2408 39.0241 84.5639 39.4254 84.9794 39.6989C85.3949 39.9723 85.8814 40.109 86.4389 40.109C86.9964 40.109 87.483 39.9723 87.8984 39.6989C88.3139 39.4254 88.6353 39.0241 88.8626 38.495C89.0934 37.9659 89.2088 37.3161 89.2088 36.5455ZM93.2558 42V31.0909H97.5597C98.3872 31.0909 99.0921 31.2489 99.6744 31.565C100.257 31.8775 100.701 32.3125 101.006 32.87C101.315 33.424 101.47 34.0632 101.47 34.7876C101.47 35.5121 101.313 36.1513 101.001 36.7053C100.688 37.2592 100.236 37.6907 99.6425 37.9996C99.053 38.3086 98.3392 38.4631 97.5012 38.4631H94.7579V36.6147H97.1283C97.5722 36.6147 97.9379 36.5384 98.2256 36.3857C98.5168 36.2294 98.7334 36.0146 98.8754 35.7411C99.021 35.4641 99.0938 35.1463 99.0938 34.7876C99.0938 34.4254 99.021 34.1094 98.8754 33.8395C98.7334 33.5661 98.5168 33.3548 98.2256 33.2056C97.9344 33.0529 97.5651 32.9766 97.1176 32.9766H95.5622V42H93.2558ZM102.968 42V31.0909H107.272C108.099 31.0909 108.804 31.2489 109.386 31.565C109.969 31.8775 110.413 32.3125 110.718 32.87C111.027 33.424 111.181 34.0632 111.181 34.7876C111.181 35.5121 111.025 36.1513 110.713 36.7053C110.4 37.2592 109.947 37.6907 109.354 37.9996C108.765 38.3086 108.051 38.4631 107.213 38.4631H104.47V36.6147H106.84C107.284 36.6147 107.65 36.5384 107.938 36.3857C108.229 36.2294 108.445 36.0146 108.587 35.7411C108.733 35.4641 108.806 35.1463 108.806 34.7876C108.806 34.4254 108.733 34.1094 108.587 33.8395C108.445 33.5661 108.229 33.3548 107.938 33.2056C107.646 33.0529 107.277 32.9766 106.83 32.9766H105.274V42H102.968ZM112.68 42V31.0909H120.03V32.9925H114.986V35.592H119.652V37.4936H114.986V40.0984H120.052V42H112.68ZM125.731 42H121.864V31.0909H125.763C126.861 31.0909 127.805 31.3093 128.597 31.7461C129.389 32.1793 129.998 32.8026 130.424 33.6158C130.854 34.429 131.069 35.402 131.069 36.5348C131.069 37.6712 130.854 38.6477 130.424 39.4645C129.998 40.2812 129.385 40.908 128.586 41.3448C127.791 41.7816 126.839 42 125.731 42ZM124.171 40.0238H125.635C126.317 40.0238 126.891 39.9031 127.356 39.6616C127.825 39.4165 128.176 39.0384 128.411 38.527C128.649 38.0121 128.768 37.348 128.768 36.5348C128.768 35.7287 128.649 35.07 128.411 34.5586C128.176 34.0472 127.827 33.6708 127.361 33.4293C126.896 33.1879 126.323 33.0671 125.641 33.0671H124.171V40.0238Z" fill="black"/>
</svg>
