<svg width="150" height="91" viewBox="0 0 150 91" fill="none" xmlns="http://www.w3.org/2000/svg">
<path d="M87.4931 45.5C87.4931 70.629 61.4973 91 29.4299 91C-2.63756 91 4.77246 70.629 4.77246 45.5C4.77246 20.371 -2.63756 0 29.4299 0C61.4973 0 87.4931 20.371 87.4931 45.5Z" fill="#C5BAFB"/>
<rect width="27.0431" height="91" fill="#C5BAFB"/>
<path d="M62.5069 45.5C62.5069 70.629 88.5027 91 120.57 91C152.638 91 145.228 70.629 145.228 45.5C145.228 20.371 152.638 0 120.57 0C88.5027 0 62.5069 20.371 62.5069 45.5Z" fill="#C5BAFB"/>
<rect width="27.0431" height="91" transform="matrix(-1 0 0 1 150 0)" fill="#C5BAFB"/>
<path d="M13.1869 51V40.0909H15.4934V49.0984H20.1702V51H13.1869ZM24.0041 40.0909V51H21.6977V40.0909H24.0041ZM25.9018 40.0909H28.7462L31.7505 47.4205H31.8783L34.8826 40.0909H37.7271V51H35.4898V43.8995H35.3993L32.5761 50.9467H31.0527L28.2295 43.8729H28.139V51H25.9018V40.0909ZM41.9338 40.0909V51H39.6274V40.0909H41.9338ZM43.416 41.9925V40.0909H52.3755V41.9925H49.0356V51H46.7558V41.9925H43.416ZM53.851 51V40.0909H61.2018V41.9925H56.1574V44.592H60.8236V46.4936H56.1574V49.0984H61.2231V51H53.851ZM66.9027 51H63.0356V40.0909H66.9347C68.032 40.0909 68.9766 40.3093 69.7685 40.7461C70.5604 41.1793 71.1694 41.8026 71.5956 42.6158C72.0253 43.429 72.2401 44.402 72.2401 45.5348C72.2401 46.6712 72.0253 47.6477 71.5956 48.4645C71.1694 49.2812 70.5569 49.908 69.7579 50.3448C68.9624 50.7816 68.0107 51 66.9027 51ZM65.342 49.0238H66.8069C67.4887 49.0238 68.0622 48.9031 68.5274 48.6616C68.9961 48.4165 69.3477 48.0384 69.5821 47.527C69.82 47.0121 69.939 46.348 69.939 45.5348C69.939 44.7287 69.82 44.07 69.5821 43.5586C69.3477 43.0472 68.9979 42.6708 68.5327 42.4293C68.0675 42.1879 67.494 42.0671 66.8122 42.0671H65.342V49.0238ZM77.4203 51V40.0909H84.7712V41.9925H79.7268V44.592H84.393V46.4936H79.7268V49.0984H84.7925V51H77.4203ZM90.4721 51H86.6049V40.0909H90.504C91.6013 40.0909 92.5459 40.3093 93.3378 40.7461C94.1298 41.1793 94.7388 41.8026 95.1649 42.6158C95.5946 43.429 95.8094 44.402 95.8094 45.5348C95.8094 46.6712 95.5946 47.6477 95.1649 48.4645C94.7388 49.2812 94.1262 49.908 93.3272 50.3448C92.5317 50.7816 91.58 51 90.4721 51ZM88.9114 49.0238H90.3762C91.058 49.0238 91.6315 48.9031 92.0967 48.6616C92.5655 48.4165 92.917 48.0384 93.1514 47.527C93.3893 47.0121 93.5083 46.348 93.5083 45.5348C93.5083 44.7287 93.3893 44.07 93.1514 43.5586C92.917 43.0472 92.5672 42.6708 92.1021 42.4293C91.6369 42.1879 91.0633 42.0671 90.3815 42.0671H88.9114V49.0238ZM99.8244 40.0909V51H97.518V40.0909H99.8244ZM101.307 41.9925V40.0909H110.266V41.9925H106.926V51H104.646V41.9925H101.307ZM114.048 40.0909V51H111.742V40.0909H114.048ZM125.971 45.5455C125.971 46.7351 125.745 47.7472 125.294 48.5817C124.847 49.4162 124.236 50.0536 123.462 50.494C122.691 50.9308 121.825 51.1491 120.862 51.1491C119.893 51.1491 119.023 50.929 118.252 50.4886C117.482 50.0483 116.873 49.4109 116.425 48.5763C115.978 47.7418 115.754 46.7315 115.754 45.5455C115.754 44.3558 115.978 43.3438 116.425 42.5092C116.873 41.6747 117.482 41.0391 118.252 40.6023C119.023 40.1619 119.893 39.9418 120.862 39.9418C121.825 39.9418 122.691 40.1619 123.462 40.6023C124.236 41.0391 124.847 41.6747 125.294 42.5092C125.745 43.3438 125.971 44.3558 125.971 45.5455ZM123.632 45.5455C123.632 44.7749 123.517 44.125 123.286 43.5959C123.059 43.0668 122.737 42.6655 122.322 42.392C121.906 42.1186 121.42 41.9819 120.862 41.9819C120.305 41.9819 119.818 42.1186 119.403 42.392C118.987 42.6655 118.664 43.0668 118.433 43.5959C118.206 44.125 118.092 44.7749 118.092 45.5455C118.092 46.3161 118.206 46.9659 118.433 47.495C118.664 48.0241 118.987 48.4254 119.403 48.6989C119.818 48.9723 120.305 49.109 120.862 49.109C121.42 49.109 121.906 48.9723 122.322 48.6989C122.737 48.4254 123.059 48.0241 123.286 47.495C123.517 46.9659 123.632 46.3161 123.632 45.5455ZM136.804 40.0909V51H134.812L130.065 44.1339H129.986V51H127.679V40.0909H129.703L134.412 46.9517H134.508V40.0909H136.804Z" fill="black"/>
</svg>
