<svg width="150" height="62" viewBox="0 0 150 62" fill="none" xmlns="http://www.w3.org/2000/svg">
<rect width="150" height="62" rx="15" fill="#FEC800"/>
<path d="M47.0728 26.0909V37H45.0806L40.3345 30.1339H40.2546V37H37.9482V26.0909H39.9723L44.6811 32.9517H44.777V26.0909H47.0728ZM48.9784 37V26.0909H56.3293V27.9925H51.2849V30.592H55.9511V32.4936H51.2849V35.0984H56.3506V37H48.9784ZM60.6186 37L57.4972 26.0909H60.0167L61.8224 33.6708H61.913L63.9052 26.0909H66.0625L68.0494 33.6868H68.1452L69.951 26.0909H72.4705L69.3491 37H67.1012L65.0238 29.8675H64.9386L62.8665 37H60.6186ZM86.3013 26.0909V37H84.3091L79.563 30.1339H79.4831V37H77.1767V26.0909H79.2008L83.9096 32.9517H84.0055V26.0909H86.3013ZM88.2069 37V26.0909H95.5578V27.9925H90.5134V30.592H95.1796V32.4936H90.5134V35.0984H95.5791V37H88.2069ZM99.8471 37L96.7257 26.0909H99.2452L101.051 33.6708H101.142L103.134 26.0909H105.291L107.278 33.6868H107.374L109.18 26.0909H111.699L108.578 37H106.33L104.252 29.8675H104.167L102.095 37H99.8471Z" fill="black"/>
</svg>
